<svg width="20" height="16" viewBox="0 0 20 16" fill="none" xmlns="http://www.w3.org/2000/svg">
<path d="M19.1668 2.27638C18.4931 2.57782 17.7674 2.78084 17.0066 2.87312C17.7842 2.40403 18.3785 1.66272 18.6611 0.778376C17.9339 1.21209 17.1288 1.52738 16.2717 1.69656C15.5872 0.959859 14.6079 0.5 13.5278 0.5C11.0986 0.5 9.31419 2.78084 9.86266 5.14934C6.73836 4.99093 3.96544 3.4837 2.11072 1.19363C1.1253 2.89465 1.60044 5.12166 3.27489 6.249C2.65919 6.22901 2.08016 6.05829 1.57294 5.7753C1.53169 7.52861 2.78141 9.16964 4.5903 9.53568C4.06169 9.68025 3.48114 9.71409 2.89141 9.60028C3.36961 11.1044 4.76141 12.1979 6.4053 12.2287C4.821 13.4775 2.8303 14.0358 0.833496 13.799C2.49877 14.874 4.47419 15.5 6.5978 15.5C13.5828 15.5 17.5275 9.56183 17.2892 4.23577C18.0256 3.70363 18.6627 3.03614 19.1668 2.27638Z" fill="#fff"/>
</svg>
